<svg xmlns="http://www.w3.org/2000/svg" xmlns:xlink="http://www.w3.org/1999/xlink" width="500" zoomAndPan="magnify" viewBox="0 0 375 374.999991" height="500" preserveAspectRatio="xMidYMid meet" version="1.2"><defs><clipPath id="547a5faa73"><path d="M 47 142.28125 L 130 142.28125 L 130 232.792969 L 47 232.792969 Z M 47 142.28125 "/></clipPath><clipPath id="0d74e3c615"><path d="M 70.542969 163.792969 L 106.550781 163.792969 L 106.550781 199.800781 L 70.542969 199.800781 Z M 70.542969 163.792969 "/></clipPath><clipPath id="1d84338659"><path d="M 88.546875 163.792969 C 78.605469 163.792969 70.542969 171.851562 70.542969 181.796875 C 70.542969 191.738281 78.605469 199.800781 88.546875 199.800781 C 98.492188 199.800781 106.550781 191.738281 106.550781 181.796875 C 106.550781 171.851562 98.492188 163.792969 88.546875 163.792969 Z M 88.546875 163.792969 "/></clipPath></defs><g id="3bedf5ddbc"><rect x="0" width="375" y="0" height="374.999991" style="fill:#ffffff;fill-opacity:1;stroke:none;"/><rect x="0" width="375" y="0" height="374.999991" style="fill:#ffffff;fill-opacity:1;stroke:none;"/><g clip-rule="nonzero" clip-path="url(#547a5faa73)"><path style=" stroke:none;fill-rule:nonzero;fill:#299ebb;fill-opacity:1;" d="M 127.132812 167.546875 C 124.558594 160.621094 119.3125 154.261719 112.359375 149.632812 C 105.261719 144.90625 96.792969 142.300781 88.515625 142.300781 C 88.511719 142.300781 88.511719 142.300781 88.511719 142.300781 C 88.484375 142.300781 88.453125 142.300781 88.425781 142.304688 C 88.414062 142.304688 88.398438 142.300781 88.386719 142.300781 C 83.839844 142.304688 79.628906 142.925781 75.871094 144.152344 C 70.027344 146.0625 64.523438 149.238281 59.957031 153.335938 C 55.335938 157.484375 51.882812 162.398438 49.964844 167.550781 C 48.957031 170.265625 45.886719 179.996094 48.804688 191.125 C 50.871094 199.011719 55.164062 204.410156 61.882812 211.074219 C 64.316406 213.488281 67.085938 215.757812 70.019531 218.164062 C 71.824219 219.640625 73.6875 221.167969 75.667969 222.878906 C 79.535156 226.222656 83.582031 229.433594 87.695312 232.421875 C 87.695312 232.425781 87.699219 232.425781 87.699219 232.425781 C 87.746094 232.460938 87.796875 232.488281 87.847656 232.515625 C 87.863281 232.523438 87.878906 232.535156 87.898438 232.546875 C 87.925781 232.558594 87.957031 232.570312 87.984375 232.582031 C 88.082031 232.621094 88.179688 232.652344 88.277344 232.671875 C 88.292969 232.675781 88.308594 232.679688 88.324219 232.683594 C 88.375 232.691406 88.429688 232.691406 88.484375 232.695312 C 88.507812 232.695312 88.527344 232.699219 88.546875 232.699219 C 88.550781 232.699219 88.554688 232.699219 88.558594 232.699219 C 88.621094 232.699219 88.6875 232.691406 88.75 232.683594 C 88.769531 232.679688 88.789062 232.675781 88.808594 232.671875 C 88.867188 232.664062 88.921875 232.648438 88.972656 232.632812 C 88.984375 232.628906 88.996094 232.628906 89.003906 232.625 C 89.011719 232.621094 89.027344 232.617188 89.035156 232.617188 C 89.035156 232.613281 89.035156 232.613281 89.035156 232.613281 C 89.09375 232.59375 89.152344 232.566406 89.207031 232.539062 C 89.230469 232.527344 89.253906 232.511719 89.277344 232.5 C 89.308594 232.480469 89.335938 232.464844 89.367188 232.445312 C 89.378906 232.4375 89.390625 232.429688 89.402344 232.421875 C 93.519531 229.429688 97.566406 226.21875 101.433594 222.875 C 102.949219 221.566406 104.40625 220.320312 105.808594 219.121094 C 117.566406 209.074219 125.332031 202.4375 128.296875 191.125 C 131.214844 179.992188 128.144531 170.265625 127.132812 167.546875 Z M 88.550781 196.847656 C 80.175781 196.847656 73.359375 190.03125 73.359375 181.65625 C 73.359375 173.28125 80.175781 166.46875 88.550781 166.46875 C 96.925781 166.46875 103.738281 173.28125 103.738281 181.65625 C 103.738281 190.03125 96.925781 196.847656 88.550781 196.847656 Z M 88.550781 196.847656 "/></g><g clip-rule="nonzero" clip-path="url(#0d74e3c615)"><g clip-rule="nonzero" clip-path="url(#1d84338659)"><path style=" stroke:none;fill-rule:nonzero;fill:#299ebb;fill-opacity:1;" d="M 70.542969 163.792969 L 106.550781 163.792969 L 106.550781 199.800781 L 70.542969 199.800781 Z M 70.542969 163.792969 "/></g></g><g style="fill:#299ebb;fill-opacity:1;"><g transform="translate(142.952294, 182.260812)"><path style="stroke:none" d="M 19.96875 -23.046875 C 19.726562 -23.023438 19.503906 -23.023438 19.296875 -23.046875 C 19.085938 -23.078125 18.882812 -23.132812 18.6875 -23.21875 C 18.46875 -23.300781 18.25 -23.414062 18.03125 -23.5625 C 17.820312 -23.71875 17.585938 -23.910156 17.328125 -24.140625 C 16.492188 -24.992188 15.695312 -25.640625 14.9375 -26.078125 C 14.1875 -26.515625 13.316406 -26.734375 12.328125 -26.734375 C 11.828125 -26.734375 11.3125 -26.660156 10.78125 -26.515625 C 10.257812 -26.378906 9.785156 -26.171875 9.359375 -25.890625 C 8.941406 -25.617188 8.585938 -25.269531 8.296875 -24.84375 C 8.015625 -24.425781 7.875 -23.957031 7.875 -23.4375 C 7.875 -22.820312 8.097656 -22.269531 8.546875 -21.78125 C 9.003906 -21.300781 9.609375 -20.84375 10.359375 -20.40625 C 11.109375 -19.988281 11.957031 -19.566406 12.90625 -19.140625 C 13.851562 -18.722656 14.816406 -18.285156 15.796875 -17.828125 C 16.785156 -17.367188 17.757812 -16.867188 18.71875 -16.328125 C 19.664062 -15.785156 20.515625 -15.164062 21.265625 -14.46875 C 22.015625 -13.78125 22.613281 -12.992188 23.0625 -12.109375 C 23.507812 -11.242188 23.734375 -10.226562 23.734375 -9.0625 C 23.734375 -7.570312 23.390625 -6.25 22.703125 -5.09375 C 22.023438 -3.9375 21.132812 -2.960938 20.03125 -2.171875 C 18.9375 -1.367188 17.703125 -0.757812 16.328125 -0.34375 C 14.953125 0.0703125 13.5625 0.28125 12.15625 0.28125 C 10.46875 0.28125 8.984375 0.0820312 7.703125 -0.3125 C 6.421875 -0.71875 5.335938 -1.25 4.453125 -1.90625 C 3.554688 -2.539062 2.847656 -3.25 2.328125 -4.03125 C 1.804688 -4.8125 1.460938 -5.585938 1.296875 -6.359375 C 1.203125 -7.191406 1.367188 -7.898438 1.796875 -8.484375 C 1.992188 -8.765625 2.257812 -8.992188 2.59375 -9.171875 C 2.9375 -9.347656 3.332031 -9.4375 3.78125 -9.4375 C 4.207031 -9.4375 4.632812 -9.320312 5.0625 -9.09375 C 5.488281 -8.863281 5.925781 -8.550781 6.375 -8.15625 C 6.863281 -7.375 7.640625 -6.707031 8.703125 -6.15625 C 9.203125 -5.882812 9.75 -5.671875 10.34375 -5.515625 C 10.9375 -5.359375 11.550781 -5.28125 12.1875 -5.28125 C 12.800781 -5.28125 13.421875 -5.359375 14.046875 -5.515625 C 14.671875 -5.671875 15.242188 -5.910156 15.765625 -6.234375 C 16.265625 -6.523438 16.675781 -6.898438 17 -7.359375 C 17.320312 -7.828125 17.484375 -8.359375 17.484375 -8.953125 C 17.484375 -9.566406 17.257812 -10.113281 16.8125 -10.59375 C 16.375 -11.070312 15.804688 -11.519531 15.109375 -11.9375 C 14.742188 -12.144531 14.359375 -12.347656 13.953125 -12.546875 C 13.554688 -12.753906 13.125 -12.953125 12.65625 -13.140625 C 11.738281 -13.515625 10.800781 -13.925781 9.84375 -14.375 C 8.882812 -14.832031 7.945312 -15.316406 7.03125 -15.828125 C 6.113281 -16.367188 5.300781 -16.976562 4.59375 -17.65625 C 3.882812 -18.34375 3.3125 -19.132812 2.875 -20.03125 C 2.425781 -20.914062 2.203125 -21.941406 2.203125 -23.109375 C 2.203125 -24.410156 2.460938 -25.597656 2.984375 -26.671875 C 3.515625 -27.753906 4.253906 -28.675781 5.203125 -29.4375 C 6.140625 -30.207031 7.25 -30.804688 8.53125 -31.234375 C 9.8125 -31.660156 11.210938 -31.875 12.734375 -31.875 C 13.484375 -31.875 14.25 -31.789062 15.03125 -31.625 C 15.8125 -31.457031 16.578125 -31.222656 17.328125 -30.921875 C 18.085938 -30.617188 18.789062 -30.269531 19.4375 -29.875 C 20.082031 -29.488281 20.65625 -29.050781 21.15625 -28.5625 C 21.65625 -28.101562 22.046875 -27.609375 22.328125 -27.078125 C 22.617188 -26.554688 22.765625 -26.035156 22.765625 -25.515625 C 22.765625 -25.035156 22.6875 -24.640625 22.53125 -24.328125 C 22.382812 -24.015625 22.1875 -23.769531 21.9375 -23.59375 C 21.6875 -23.394531 21.390625 -23.253906 21.046875 -23.171875 C 20.703125 -23.085938 20.34375 -23.046875 19.96875 -23.046875 Z M 19.96875 -23.046875 "/></g></g><g style="fill:#299ebb;fill-opacity:1;"><g transform="translate(167.215438, 182.260812)"><path style="stroke:none" d="M 24.46875 -20.890625 C 25.445312 -19.773438 26.203125 -18.46875 26.734375 -16.96875 C 27.273438 -15.476562 27.546875 -13.882812 27.546875 -12.1875 L 27.546875 -2.75 C 27.546875 -2.363281 27.46875 -1.988281 27.3125 -1.625 C 27.164062 -1.269531 26.96875 -0.953125 26.71875 -0.671875 C 26.445312 -0.410156 26.128906 -0.191406 25.765625 -0.015625 C 25.398438 0.160156 25.007812 0.25 24.59375 0.25 C 24.09375 0.25 23.65625 0.15625 23.28125 -0.03125 C 22.914062 -0.226562 22.617188 -0.484375 22.390625 -0.796875 C 22.140625 -1.097656 21.953125 -1.445312 21.828125 -1.84375 C 21.703125 -2.25 21.640625 -2.671875 21.640625 -3.109375 L 21.640625 -12.15625 C 21.640625 -13.0625 21.484375 -13.914062 21.171875 -14.71875 C 20.867188 -15.53125 20.441406 -16.234375 19.890625 -16.828125 C 19.335938 -17.429688 18.6875 -17.90625 17.9375 -18.25 C 17.1875 -18.601562 16.359375 -18.78125 15.453125 -18.78125 C 14.535156 -18.78125 13.664062 -18.582031 12.84375 -18.1875 C 12.03125 -17.789062 11.316406 -17.25 10.703125 -16.5625 C 10.085938 -15.894531 9.597656 -15.128906 9.234375 -14.265625 C 8.878906 -13.410156 8.703125 -12.539062 8.703125 -11.65625 L 8.703125 -2.703125 C 8.703125 -2.285156 8.625 -1.894531 8.46875 -1.53125 C 8.3125 -1.175781 8.097656 -0.863281 7.828125 -0.59375 C 7.265625 -0.03125 6.570312 0.25 5.75 0.25 C 4.914062 0.25 4.21875 -0.03125 3.65625 -0.59375 C 3.082031 -1.164062 2.796875 -1.867188 2.796875 -2.703125 L 2.796875 -29.140625 C 2.796875 -29.960938 3.082031 -30.65625 3.65625 -31.21875 C 4.21875 -31.78125 4.914062 -32.0625 5.75 -32.0625 C 6.570312 -32.0625 7.265625 -31.78125 7.828125 -31.21875 C 8.097656 -30.945312 8.3125 -30.632812 8.46875 -30.28125 C 8.625 -29.925781 8.703125 -29.546875 8.703125 -29.140625 L 8.703125 -20.109375 C 8.941406 -20.546875 9.273438 -21 9.703125 -21.46875 C 10.140625 -21.945312 10.640625 -22.390625 11.203125 -22.796875 C 11.898438 -23.273438 12.679688 -23.675781 13.546875 -24 C 14.421875 -24.320312 15.347656 -24.484375 16.328125 -24.484375 C 18.003906 -24.484375 19.535156 -24.15625 20.921875 -23.5 C 22.316406 -22.851562 23.5 -21.984375 24.46875 -20.890625 Z M 24.46875 -20.890625 "/></g></g><g style="fill:#299ebb;fill-opacity:1;"><g transform="translate(196.606394, 182.260812)"><path style="stroke:none" d="M 24.71875 -24.421875 C 25.78125 -24.421875 26.3125 -23.882812 26.3125 -22.8125 L 26.3125 -1.625 C 26.3125 -0.351562 25.703125 0.28125 24.484375 0.28125 C 23.867188 0.28125 23.363281 0.101562 22.96875 -0.25 C 22.582031 -0.613281 22.296875 -1.085938 22.109375 -1.671875 L 21.734375 -3.125 C 20.816406 -2.070312 19.695312 -1.238281 18.375 -0.625 C 17.0625 -0.0195312 15.585938 0.28125 13.953125 0.28125 C 12.253906 0.28125 10.660156 -0.0390625 9.171875 -0.6875 C 7.691406 -1.34375 6.382812 -2.234375 5.25 -3.359375 C 4.132812 -4.472656 3.242188 -5.78125 2.578125 -7.28125 C 1.921875 -8.78125 1.59375 -10.378906 1.59375 -12.078125 C 1.59375 -13.785156 1.921875 -15.382812 2.578125 -16.875 C 3.242188 -18.363281 4.132812 -19.664062 5.25 -20.78125 C 6.382812 -21.90625 7.691406 -22.789062 9.171875 -23.4375 C 10.660156 -24.09375 12.253906 -24.421875 13.953125 -24.421875 C 15.640625 -24.421875 17.148438 -24.097656 18.484375 -23.453125 C 19.816406 -22.804688 20.953125 -21.9375 21.890625 -20.84375 L 22.109375 -21.515625 C 22.304688 -22.566406 22.632812 -23.3125 23.09375 -23.75 C 23.5625 -24.195312 24.101562 -24.421875 24.71875 -24.421875 Z M 18.515625 -7.375 C 19.097656 -7.976562 19.550781 -8.679688 19.875 -9.484375 C 20.195312 -10.296875 20.359375 -11.160156 20.359375 -12.078125 C 20.359375 -12.984375 20.195312 -13.835938 19.875 -14.640625 C 19.550781 -15.453125 19.097656 -16.160156 18.515625 -16.765625 C 17.941406 -17.359375 17.265625 -17.832031 16.484375 -18.1875 C 15.703125 -18.539062 14.859375 -18.71875 13.953125 -18.71875 C 13.054688 -18.71875 12.21875 -18.539062 11.4375 -18.1875 C 10.664062 -17.832031 9.988281 -17.359375 9.40625 -16.765625 C 8.84375 -16.160156 8.394531 -15.453125 8.0625 -14.640625 C 7.726562 -13.835938 7.5625 -12.984375 7.5625 -12.078125 C 7.5625 -11.160156 7.726562 -10.296875 8.0625 -9.484375 C 8.394531 -8.679688 8.84375 -7.976562 9.40625 -7.375 C 9.988281 -6.78125 10.664062 -6.304688 11.4375 -5.953125 C 12.21875 -5.597656 13.054688 -5.421875 13.953125 -5.421875 C 14.859375 -5.421875 15.703125 -5.597656 16.484375 -5.953125 C 17.265625 -6.304688 17.941406 -6.78125 18.515625 -7.375 Z M 18.515625 -7.375 "/></g></g><g style="fill:#299ebb;fill-opacity:1;"><g transform="translate(225.071842, 182.260812)"><path style="stroke:none" d="M 17.890625 -23.8125 C 18.535156 -23.582031 19.082031 -23.238281 19.53125 -22.78125 C 19.988281 -22.332031 20.21875 -21.757812 20.21875 -21.0625 C 20.21875 -20.59375 20.09375 -20.171875 19.84375 -19.796875 C 19.601562 -19.421875 19.3125 -19.132812 18.96875 -18.9375 C 18.59375 -18.71875 18.210938 -18.585938 17.828125 -18.546875 C 17.453125 -18.503906 16.921875 -18.5 16.234375 -18.53125 C 15.960938 -18.550781 15.6875 -18.566406 15.40625 -18.578125 C 15.125 -18.597656 14.84375 -18.617188 14.5625 -18.640625 C 13.988281 -18.671875 13.421875 -18.59375 12.859375 -18.40625 C 12.304688 -18.226562 11.789062 -17.960938 11.3125 -17.609375 C 10.351562 -16.910156 9.632812 -15.9375 9.15625 -14.6875 C 8.9375 -14.070312 8.785156 -13.421875 8.703125 -12.734375 L 8.703125 -2.703125 C 8.703125 -2.285156 8.625 -1.894531 8.46875 -1.53125 C 8.3125 -1.175781 8.097656 -0.863281 7.828125 -0.59375 C 7.265625 -0.03125 6.570312 0.25 5.75 0.25 C 4.914062 0.25 4.21875 -0.03125 3.65625 -0.59375 C 3.082031 -1.164062 2.796875 -1.867188 2.796875 -2.703125 L 2.796875 -22.84375 C 2.796875 -23.90625 3.332031 -24.4375 4.40625 -24.4375 C 5.019531 -24.4375 5.550781 -24.222656 6 -23.796875 C 6.445312 -23.378906 6.78125 -22.625 7 -21.53125 L 7.234375 -20.59375 C 7.515625 -20.925781 7.847656 -21.257812 8.234375 -21.59375 C 8.617188 -21.925781 9.039062 -22.25 9.5 -22.5625 C 10.101562 -22.96875 10.765625 -23.320312 11.484375 -23.625 C 12.203125 -23.9375 12.96875 -24.160156 13.78125 -24.296875 C 14.363281 -24.335938 15.023438 -24.328125 15.765625 -24.265625 C 16.515625 -24.203125 17.222656 -24.050781 17.890625 -23.8125 Z M 17.890625 -23.8125 "/></g></g><g style="fill:#299ebb;fill-opacity:1;"><g transform="translate(245.457854, 182.260812)"><path style="stroke:none" d="M 13.890625 0.25 C 12.179688 0.25 10.582031 -0.0703125 9.09375 -0.71875 C 7.613281 -1.375 6.304688 -2.257812 5.171875 -3.375 C 4.054688 -4.476562 3.171875 -5.78125 2.515625 -7.28125 C 1.859375 -8.78125 1.53125 -10.378906 1.53125 -12.078125 C 1.53125 -13.878906 1.863281 -15.535156 2.53125 -17.046875 C 3.195312 -18.554688 4.101562 -19.863281 5.25 -20.96875 C 6.40625 -22.050781 7.738281 -22.898438 9.25 -23.515625 C 10.769531 -24.128906 12.378906 -24.4375 14.078125 -24.4375 C 15.785156 -24.4375 17.375 -24.132812 18.84375 -23.53125 C 20.320312 -22.9375 21.613281 -22.101562 22.71875 -21.03125 C 23.8125 -19.96875 24.675781 -18.703125 25.3125 -17.234375 C 25.945312 -15.765625 26.265625 -14.171875 26.265625 -12.453125 C 26.265625 -11.617188 26.046875 -11.0625 25.609375 -10.78125 C 25.179688 -10.5 24.441406 -10.359375 23.390625 -10.359375 L 7.578125 -10.359375 C 7.648438 -9.585938 7.863281 -8.859375 8.21875 -8.171875 C 8.570312 -7.492188 9.035156 -6.890625 9.609375 -6.359375 C 10.171875 -5.835938 10.816406 -5.414062 11.546875 -5.09375 C 12.285156 -4.769531 13.070312 -4.609375 13.90625 -4.609375 C 15.5625 -4.609375 17.015625 -5.140625 18.265625 -6.203125 C 18.609375 -6.398438 19.019531 -6.503906 19.5 -6.515625 C 19.988281 -6.535156 20.457031 -6.460938 20.90625 -6.296875 C 21.363281 -6.128906 21.75 -5.859375 22.0625 -5.484375 C 22.375 -5.109375 22.53125 -4.640625 22.53125 -4.078125 C 22.53125 -3.429688 22.265625 -2.84375 21.734375 -2.3125 C 21.203125 -1.789062 20.519531 -1.335938 19.6875 -0.953125 C 18.851562 -0.585938 17.914062 -0.296875 16.875 -0.078125 C 15.84375 0.140625 14.847656 0.25 13.890625 0.25 Z M 14.078125 -19.640625 C 13.265625 -19.640625 12.484375 -19.492188 11.734375 -19.203125 C 10.984375 -18.921875 10.316406 -18.53125 9.734375 -18.03125 C 9.148438 -17.53125 8.660156 -16.941406 8.265625 -16.265625 C 7.878906 -15.597656 7.632812 -14.863281 7.53125 -14.0625 L 20.3125 -14.0625 C 20.25 -14.863281 20.035156 -15.597656 19.671875 -16.265625 C 19.316406 -16.941406 18.863281 -17.53125 18.3125 -18.03125 C 17.738281 -18.53125 17.085938 -18.921875 16.359375 -19.203125 C 15.640625 -19.492188 14.878906 -19.640625 14.078125 -19.640625 Z M 14.078125 -19.640625 "/></g></g><g style="fill:#299ebb;fill-opacity:1;"><g transform="translate(142.952294, 225.010809)"><path style="stroke:none" d="M 27.046875 -19.9375 C 27.046875 -18.21875 26.695312 -16.640625 26 -15.203125 C 25.3125 -13.773438 24.382812 -12.539062 23.21875 -11.5 C 22.050781 -10.457031 20.691406 -9.644531 19.140625 -9.0625 C 17.585938 -8.476562 15.953125 -8.1875 14.234375 -8.1875 L 9.203125 -8.1875 L 9.203125 -2.703125 C 9.203125 -1.867188 8.921875 -1.164062 8.359375 -0.59375 C 7.785156 -0.03125 7.082031 0.25 6.25 0.25 C 5.40625 0.25 4.710938 -0.03125 4.171875 -0.59375 C 3.609375 -1.164062 3.328125 -1.867188 3.328125 -2.703125 L 3.328125 -28.96875 C 3.296875 -29.320312 3.242188 -29.65625 3.171875 -29.96875 C 3.140625 -30.132812 3.109375 -30.289062 3.078125 -30.4375 C 3.054688 -30.59375 3.046875 -30.742188 3.046875 -30.890625 C 3.046875 -31.296875 3.179688 -31.585938 3.453125 -31.765625 C 3.597656 -31.867188 3.804688 -31.945312 4.078125 -32 C 4.347656 -32.0625 4.691406 -32.09375 5.109375 -32.09375 L 14.234375 -32.09375 C 15.953125 -32.09375 17.585938 -31.78125 19.140625 -31.15625 C 20.691406 -30.53125 22.050781 -29.675781 23.21875 -28.59375 C 24.382812 -27.507812 25.3125 -26.222656 26 -24.734375 C 26.695312 -23.253906 27.046875 -21.65625 27.046875 -19.9375 Z M 21.265625 -19.78125 C 21.265625 -20.75 21.078125 -21.65625 20.703125 -22.5 C 20.335938 -23.34375 19.84375 -24.082031 19.21875 -24.71875 C 18.5625 -25.351562 17.804688 -25.851562 16.953125 -26.21875 C 16.109375 -26.582031 15.203125 -26.765625 14.234375 -26.765625 L 9.109375 -26.765625 L 9.109375 -13.3125 L 14.234375 -13.3125 C 15.203125 -13.3125 16.109375 -13.460938 16.953125 -13.765625 C 17.804688 -14.078125 18.5625 -14.515625 19.21875 -15.078125 C 19.84375 -15.648438 20.335938 -16.332031 20.703125 -17.125 C 21.078125 -17.914062 21.265625 -18.800781 21.265625 -19.78125 Z M 21.265625 -19.78125 "/></g></g><g style="fill:#299ebb;fill-opacity:1;"><g transform="translate(170.041991, 225.010809)"><path style="stroke:none" d="M 24.71875 -24.421875 C 25.78125 -24.421875 26.3125 -23.882812 26.3125 -22.8125 L 26.3125 -1.625 C 26.3125 -0.351562 25.703125 0.28125 24.484375 0.28125 C 23.867188 0.28125 23.363281 0.101562 22.96875 -0.25 C 22.582031 -0.613281 22.296875 -1.085938 22.109375 -1.671875 L 21.734375 -3.125 C 20.816406 -2.070312 19.695312 -1.238281 18.375 -0.625 C 17.0625 -0.0195312 15.585938 0.28125 13.953125 0.28125 C 12.253906 0.28125 10.660156 -0.0390625 9.171875 -0.6875 C 7.691406 -1.34375 6.382812 -2.234375 5.25 -3.359375 C 4.132812 -4.472656 3.242188 -5.78125 2.578125 -7.28125 C 1.921875 -8.78125 1.59375 -10.378906 1.59375 -12.078125 C 1.59375 -13.785156 1.921875 -15.382812 2.578125 -16.875 C 3.242188 -18.363281 4.132812 -19.664062 5.25 -20.78125 C 6.382812 -21.90625 7.691406 -22.789062 9.171875 -23.4375 C 10.660156 -24.09375 12.253906 -24.421875 13.953125 -24.421875 C 15.640625 -24.421875 17.148438 -24.097656 18.484375 -23.453125 C 19.816406 -22.804688 20.953125 -21.9375 21.890625 -20.84375 L 22.109375 -21.515625 C 22.304688 -22.566406 22.632812 -23.3125 23.09375 -23.75 C 23.5625 -24.195312 24.101562 -24.421875 24.71875 -24.421875 Z M 18.515625 -7.375 C 19.097656 -7.976562 19.550781 -8.679688 19.875 -9.484375 C 20.195312 -10.296875 20.359375 -11.160156 20.359375 -12.078125 C 20.359375 -12.984375 20.195312 -13.835938 19.875 -14.640625 C 19.550781 -15.453125 19.097656 -16.160156 18.515625 -16.765625 C 17.941406 -17.359375 17.265625 -17.832031 16.484375 -18.1875 C 15.703125 -18.539062 14.859375 -18.71875 13.953125 -18.71875 C 13.054688 -18.71875 12.21875 -18.539062 11.4375 -18.1875 C 10.664062 -17.832031 9.988281 -17.359375 9.40625 -16.765625 C 8.84375 -16.160156 8.394531 -15.453125 8.0625 -14.640625 C 7.726562 -13.835938 7.5625 -12.984375 7.5625 -12.078125 C 7.5625 -11.160156 7.726562 -10.296875 8.0625 -9.484375 C 8.394531 -8.679688 8.84375 -7.976562 9.40625 -7.375 C 9.988281 -6.78125 10.664062 -6.304688 11.4375 -5.953125 C 12.21875 -5.597656 13.054688 -5.421875 13.953125 -5.421875 C 14.859375 -5.421875 15.703125 -5.597656 16.484375 -5.953125 C 17.265625 -6.304688 17.941406 -6.78125 18.515625 -7.375 Z M 18.515625 -7.375 "/></g></g><g style="fill:#299ebb;fill-opacity:1;"><g transform="translate(198.50744, 225.010809)"><path style="stroke:none" d="M 17.890625 -23.8125 C 18.535156 -23.582031 19.082031 -23.238281 19.53125 -22.78125 C 19.988281 -22.332031 20.21875 -21.757812 20.21875 -21.0625 C 20.21875 -20.59375 20.09375 -20.171875 19.84375 -19.796875 C 19.601562 -19.421875 19.3125 -19.132812 18.96875 -18.9375 C 18.59375 -18.71875 18.210938 -18.585938 17.828125 -18.546875 C 17.453125 -18.503906 16.921875 -18.5 16.234375 -18.53125 C 15.960938 -18.550781 15.6875 -18.566406 15.40625 -18.578125 C 15.125 -18.597656 14.84375 -18.617188 14.5625 -18.640625 C 13.988281 -18.671875 13.421875 -18.59375 12.859375 -18.40625 C 12.304688 -18.226562 11.789062 -17.960938 11.3125 -17.609375 C 10.351562 -16.910156 9.632812 -15.9375 9.15625 -14.6875 C 8.9375 -14.070312 8.785156 -13.421875 8.703125 -12.734375 L 8.703125 -2.703125 C 8.703125 -2.285156 8.625 -1.894531 8.46875 -1.53125 C 8.3125 -1.175781 8.097656 -0.863281 7.828125 -0.59375 C 7.265625 -0.03125 6.570312 0.25 5.75 0.25 C 4.914062 0.25 4.21875 -0.03125 3.65625 -0.59375 C 3.082031 -1.164062 2.796875 -1.867188 2.796875 -2.703125 L 2.796875 -22.84375 C 2.796875 -23.90625 3.332031 -24.4375 4.40625 -24.4375 C 5.019531 -24.4375 5.550781 -24.222656 6 -23.796875 C 6.445312 -23.378906 6.78125 -22.625 7 -21.53125 L 7.234375 -20.59375 C 7.515625 -20.925781 7.847656 -21.257812 8.234375 -21.59375 C 8.617188 -21.925781 9.039062 -22.25 9.5 -22.5625 C 10.101562 -22.96875 10.765625 -23.320312 11.484375 -23.625 C 12.203125 -23.9375 12.96875 -24.160156 13.78125 -24.296875 C 14.363281 -24.335938 15.023438 -24.328125 15.765625 -24.265625 C 16.515625 -24.203125 17.222656 -24.050781 17.890625 -23.8125 Z M 17.890625 -23.8125 "/></g></g><g style="fill:#299ebb;fill-opacity:1;"><g transform="translate(218.893452, 225.010809)"><path style="stroke:none" d="M 25.9375 -4.5 C 26.300781 -4.070312 26.515625 -3.597656 26.578125 -3.078125 C 26.648438 -2.554688 26.597656 -2.070312 26.421875 -1.625 C 26.234375 -1.15625 25.9375 -0.757812 25.53125 -0.4375 C 25.125 -0.113281 24.632812 0.0703125 24.0625 0.125 C 23.800781 0.1875 23.546875 0.1875 23.296875 0.125 C 23.046875 0.0703125 22.800781 -0.0078125 22.5625 -0.125 C 22.113281 -0.375 21.726562 -0.695312 21.40625 -1.09375 L 14.90625 -11.53125 C 14.59375 -11.257812 14.28125 -11.007812 13.96875 -10.78125 C 13.664062 -10.550781 13.367188 -10.328125 13.078125 -10.109375 C 12.515625 -9.671875 11.984375 -9.257812 11.484375 -8.875 C 10.984375 -8.5 10.507812 -8.132812 10.0625 -7.78125 C 9.84375 -7.59375 9.617188 -7.410156 9.390625 -7.234375 C 9.171875 -7.066406 8.941406 -6.890625 8.703125 -6.703125 L 8.703125 -2.703125 C 8.703125 -2.285156 8.625 -1.894531 8.46875 -1.53125 C 8.3125 -1.175781 8.097656 -0.863281 7.828125 -0.59375 C 7.265625 -0.03125 6.570312 0.25 5.75 0.25 C 4.914062 0.25 4.21875 -0.03125 3.65625 -0.59375 C 3.082031 -1.164062 2.796875 -1.867188 2.796875 -2.703125 L 2.796875 -29.140625 C 2.796875 -29.960938 3.082031 -30.65625 3.65625 -31.21875 C 4.21875 -31.78125 4.914062 -32.0625 5.75 -32.0625 C 6.570312 -32.0625 7.265625 -31.78125 7.828125 -31.21875 C 8.097656 -30.945312 8.3125 -30.632812 8.46875 -30.28125 C 8.625 -29.925781 8.703125 -29.546875 8.703125 -29.140625 L 8.703125 -13.859375 L 19.90625 -22.53125 C 20.363281 -22.875 20.84375 -23.207031 21.34375 -23.53125 C 21.84375 -23.851562 22.347656 -24.140625 22.859375 -24.390625 C 23.109375 -24.472656 23.367188 -24.523438 23.640625 -24.546875 C 23.921875 -24.578125 24.203125 -24.550781 24.484375 -24.46875 C 24.890625 -24.351562 25.257812 -24.132812 25.59375 -23.8125 C 25.9375 -23.5 26.175781 -23.125 26.3125 -22.6875 C 26.550781 -21.957031 26.535156 -21.320312 26.265625 -20.78125 C 26.148438 -20.519531 25.992188 -20.265625 25.796875 -20.015625 C 25.609375 -19.773438 25.398438 -19.550781 25.171875 -19.34375 C 25.046875 -19.21875 24.929688 -19.109375 24.828125 -19.015625 C 24.722656 -18.929688 24.609375 -18.847656 24.484375 -18.765625 L 19.46875 -14.890625 Z M 25.9375 -4.5 "/></g></g><g style="fill:#299ebb;fill-opacity:1;"><g transform="translate(245.682982, 225.010809)"><path style="stroke:none" d="M 2.5 -30.765625 C 2.5 -31.679688 2.816406 -32.441406 3.453125 -33.046875 C 4.066406 -33.660156 4.832031 -33.96875 5.75 -33.96875 C 6.195312 -33.96875 6.617188 -33.882812 7.015625 -33.71875 C 7.410156 -33.550781 7.757812 -33.328125 8.0625 -33.046875 C 8.6875 -32.441406 9 -31.679688 9 -30.765625 C 9 -29.847656 8.6875 -29.09375 8.0625 -28.5 C 7.425781 -27.894531 6.65625 -27.59375 5.75 -27.59375 C 4.820312 -27.59375 4.054688 -27.894531 3.453125 -28.5 C 2.816406 -29.09375 2.5 -29.847656 2.5 -30.765625 Z M 2.796875 -2.703125 L 2.796875 -21.53125 C 2.796875 -22.351562 3.082031 -23.046875 3.65625 -23.609375 C 4.1875 -24.179688 4.878906 -24.46875 5.734375 -24.46875 C 6.546875 -24.46875 7.238281 -24.179688 7.8125 -23.609375 C 8.070312 -23.347656 8.28125 -23.035156 8.4375 -22.671875 C 8.601562 -22.316406 8.6875 -21.9375 8.6875 -21.53125 L 8.6875 -2.703125 C 8.6875 -2.285156 8.601562 -1.894531 8.4375 -1.53125 C 8.28125 -1.175781 8.070312 -0.863281 7.8125 -0.59375 C 7.238281 -0.03125 6.546875 0.25 5.734375 0.25 C 4.878906 0.25 4.1875 -0.03125 3.65625 -0.59375 C 3.082031 -1.164062 2.796875 -1.867188 2.796875 -2.703125 Z M 2.796875 -2.703125 "/></g></g><g style="fill:#299ebb;fill-opacity:1;"><g transform="translate(256.263605, 225.010809)"><path style="stroke:none" d="M 24.4375 -20.8125 C 25.425781 -19.695312 26.191406 -18.390625 26.734375 -16.890625 C 27.273438 -15.398438 27.546875 -13.804688 27.546875 -12.109375 L 27.546875 -2.703125 C 27.546875 -1.929688 27.269531 -1.253906 26.71875 -0.671875 C 26.445312 -0.410156 26.128906 -0.191406 25.765625 -0.015625 C 25.410156 0.160156 25.023438 0.25 24.609375 0.25 C 24.191406 0.25 23.804688 0.171875 23.453125 0.015625 C 23.097656 -0.140625 22.785156 -0.351562 22.515625 -0.625 C 22.242188 -0.894531 22.03125 -1.207031 21.875 -1.5625 C 21.71875 -1.914062 21.640625 -2.296875 21.640625 -2.703125 L 21.640625 -12.078125 C 21.640625 -12.984375 21.484375 -13.835938 21.171875 -14.640625 C 20.867188 -15.453125 20.441406 -16.160156 19.890625 -16.765625 C 19.335938 -17.359375 18.6875 -17.832031 17.9375 -18.1875 C 17.1875 -18.539062 16.359375 -18.71875 15.453125 -18.71875 C 14.578125 -18.71875 13.734375 -18.53125 12.921875 -18.15625 C 12.109375 -17.789062 11.382812 -17.304688 10.75 -16.703125 C 10.132812 -16.085938 9.640625 -15.375 9.265625 -14.5625 C 8.890625 -13.757812 8.703125 -12.914062 8.703125 -12.03125 L 8.703125 -2.703125 C 8.703125 -2.285156 8.625 -1.894531 8.46875 -1.53125 C 8.3125 -1.175781 8.097656 -0.863281 7.828125 -0.59375 C 7.265625 -0.03125 6.570312 0.25 5.75 0.25 C 4.914062 0.25 4.21875 -0.03125 3.65625 -0.59375 C 3.082031 -1.164062 2.796875 -1.867188 2.796875 -2.703125 L 2.796875 -22.84375 C 2.796875 -23.90625 3.332031 -24.4375 4.40625 -24.4375 C 5.019531 -24.4375 5.550781 -24.222656 6 -23.796875 C 6.445312 -23.378906 6.78125 -22.625 7 -21.53125 L 7.25 -20.484375 C 8.289062 -21.535156 9.519531 -22.410156 10.9375 -23.109375 C 11.769531 -23.515625 12.632812 -23.832031 13.53125 -24.0625 C 14.4375 -24.300781 15.328125 -24.421875 16.203125 -24.421875 C 17.910156 -24.421875 19.457031 -24.09375 20.84375 -23.4375 C 22.238281 -22.789062 23.4375 -21.914062 24.4375 -20.8125 Z M 24.4375 -20.8125 "/></g></g><g style="fill:#299ebb;fill-opacity:1;"><g transform="translate(285.704593, 225.010809)"><path style="stroke:none" d="M 14.9375 4.546875 C 17.070312 4.484375 18.601562 3.757812 19.53125 2.375 C 20.46875 0.988281 20.851562 -1.066406 20.6875 -3.796875 C 20.46875 -3.265625 20.117188 -2.753906 19.640625 -2.265625 C 19.171875 -1.785156 18.59375 -1.351562 17.90625 -0.96875 C 17.238281 -0.59375 16.492188 -0.289062 15.671875 -0.0625 C 14.847656 0.164062 14.003906 0.28125 13.140625 0.28125 C 11.429688 0.28125 9.875 -0.0390625 8.46875 -0.6875 C 7.0625 -1.34375 5.835938 -2.234375 4.796875 -3.359375 C 3.785156 -4.472656 2.988281 -5.78125 2.40625 -7.28125 C 1.832031 -8.78125 1.546875 -10.378906 1.546875 -12.078125 C 1.546875 -13.785156 1.832031 -15.382812 2.40625 -16.875 C 2.988281 -18.363281 3.785156 -19.664062 4.796875 -20.78125 C 5.835938 -21.90625 7.0625 -22.789062 8.46875 -23.4375 C 9.875 -24.09375 11.429688 -24.421875 13.140625 -24.421875 C 14.140625 -24.421875 15.097656 -24.285156 16.015625 -24.015625 C 16.941406 -23.742188 17.789062 -23.398438 18.5625 -22.984375 C 19.34375 -22.566406 20.03125 -22.09375 20.625 -21.5625 C 21.226562 -21.039062 21.722656 -20.53125 22.109375 -20.03125 C 22.222656 -21.445312 22.488281 -22.523438 22.90625 -23.265625 C 23.332031 -24.015625 23.882812 -24.390625 24.5625 -24.390625 C 24.894531 -24.390625 25.175781 -24.289062 25.40625 -24.09375 C 25.644531 -23.894531 25.820312 -23.644531 25.9375 -23.34375 C 26.070312 -23.019531 26.160156 -22.671875 26.203125 -22.296875 C 26.242188 -21.921875 26.265625 -21.5625 26.265625 -21.21875 L 26.265625 -2.125 C 26.265625 -0.144531 25.953125 1.59375 25.328125 3.09375 C 24.703125 4.601562 23.875 5.859375 22.84375 6.859375 C 21.800781 7.859375 20.609375 8.609375 19.265625 9.109375 C 17.929688 9.609375 16.546875 9.859375 15.109375 9.859375 C 14.222656 9.859375 13.378906 9.789062 12.578125 9.65625 C 11.773438 9.519531 11.066406 9.300781 10.453125 9 C 9.835938 8.71875 9.347656 8.351562 8.984375 7.90625 C 8.628906 7.46875 8.453125 6.953125 8.453125 6.359375 C 8.453125 5.984375 8.523438 5.644531 8.671875 5.34375 C 8.828125 5.050781 9.03125 4.804688 9.28125 4.609375 C 9.507812 4.398438 9.785156 4.25 10.109375 4.15625 C 10.441406 4.070312 10.78125 4.035156 11.125 4.046875 C 11.445312 4.085938 11.753906 4.132812 12.046875 4.1875 C 12.335938 4.25 12.625 4.3125 12.90625 4.375 C 13.1875 4.445312 13.5 4.5 13.84375 4.53125 C 14.1875 4.5625 14.550781 4.566406 14.9375 4.546875 Z M 7.53125 -12.078125 C 7.53125 -11.160156 7.675781 -10.296875 7.96875 -9.484375 C 8.257812 -8.679688 8.679688 -7.976562 9.234375 -7.375 C 9.765625 -6.78125 10.40625 -6.304688 11.15625 -5.953125 C 11.90625 -5.597656 12.734375 -5.421875 13.640625 -5.421875 C 14.535156 -5.421875 15.382812 -5.597656 16.1875 -5.953125 C 17 -6.304688 17.71875 -6.78125 18.34375 -7.375 C 18.9375 -7.976562 19.410156 -8.679688 19.765625 -9.484375 C 20.128906 -10.296875 20.3125 -11.160156 20.3125 -12.078125 C 20.3125 -12.960938 20.128906 -13.804688 19.765625 -14.609375 C 19.398438 -15.410156 18.914062 -16.117188 18.3125 -16.734375 C 17.695312 -17.335938 16.984375 -17.816406 16.171875 -18.171875 C 15.359375 -18.535156 14.515625 -18.71875 13.640625 -18.71875 C 12.734375 -18.71875 11.90625 -18.539062 11.15625 -18.1875 C 10.40625 -17.832031 9.765625 -17.359375 9.234375 -16.765625 C 8.679688 -16.160156 8.257812 -15.453125 7.96875 -14.640625 C 7.675781 -13.835938 7.53125 -12.984375 7.53125 -12.078125 Z M 7.53125 -12.078125 "/></g></g><g style="fill:#ffffff;fill-opacity:1;"><g transform="translate(68.23945, 207.065274)"><path style="stroke:none" d="M 39.046875 -27.890625 C 39.046875 -25.546875 38.5625 -23.378906 37.59375 -21.390625 C 36.625 -19.398438 35.320312 -17.675781 33.6875 -16.21875 C 32.0625 -14.769531 30.175781 -13.632812 28.03125 -12.8125 C 25.894531 -12 23.640625 -11.59375 21.265625 -11.59375 L 15.53125 -11.59375 L 15.53125 -4.90625 C 15.53125 -4.144531 15.390625 -3.4375 15.109375 -2.78125 C 14.835938 -2.125 14.460938 -1.550781 13.984375 -1.0625 C 12.972656 -0.0078125 11.695312 0.515625 10.15625 0.515625 C 8.582031 0.515625 7.289062 -0.0078125 6.28125 -1.0625 C 5.800781 -1.550781 5.421875 -2.125 5.140625 -2.78125 C 4.867188 -3.4375 4.734375 -4.144531 4.734375 -4.90625 L 4.734375 -38.90625 C 4.703125 -39.207031 4.671875 -39.507812 4.640625 -39.8125 C 4.609375 -40.125 4.554688 -40.429688 4.484375 -40.734375 C 4.390625 -41.035156 4.328125 -41.328125 4.296875 -41.609375 C 4.265625 -41.898438 4.25 -42.171875 4.25 -42.421875 C 4.25 -42.773438 4.300781 -43.085938 4.40625 -43.359375 C 4.507812 -43.640625 4.695312 -43.882812 4.96875 -44.09375 C 5.5 -44.476562 6.441406 -44.671875 7.796875 -44.671875 L 21.265625 -44.671875 C 23.640625 -44.671875 25.894531 -44.238281 28.03125 -43.375 C 30.175781 -42.507812 32.0625 -41.332031 33.6875 -39.84375 C 35.320312 -38.320312 36.625 -36.539062 37.59375 -34.5 C 38.5625 -32.46875 39.046875 -30.265625 39.046875 -27.890625 Z M 28.453125 -27.578125 C 28.453125 -28.566406 28.269531 -29.507812 27.90625 -30.40625 C 27.550781 -31.3125 27.039062 -32.109375 26.375 -32.796875 C 25.726562 -33.460938 24.960938 -33.992188 24.078125 -34.390625 C 23.191406 -34.796875 22.253906 -35 21.265625 -35 L 15.328125 -35 L 15.328125 -20.890625 L 21.265625 -20.890625 C 22.253906 -20.890625 23.191406 -21.054688 24.078125 -21.390625 C 24.960938 -21.722656 25.726562 -22.175781 26.375 -22.75 C 27.039062 -23.351562 27.550781 -24.0625 27.90625 -24.875 C 28.269531 -25.6875 28.453125 -26.585938 28.453125 -27.578125 Z M 28.453125 -27.578125 "/></g></g></g></svg>